<svg xmlns="http://www.w3.org/2000/svg" viewBox="0 0 1280.34 1014.43"><defs><style>.cls-1{fill:#a1cfd8}.cls-2{fill:#70a5bc}.cls-4{fill:#a08c8a}.cls-5{fill:#695d5c}.cls-6{fill:#f4dac1}.cls-7{fill:#242423}.cls-8{fill:#3b3b3b}.cls-9{fill:#c2c2c2}.cls-10{fill:#6a6a6a}.cls-13{fill:#ebb996}.cls-17{fill:none;stroke:#a88068;stroke-miterlimit:10;stroke-width:4px}.cls-19{fill:#fff}</style></defs><g id="Layer_2" data-name="Layer 2"><g id="Bushes"><path class="cls-1" d="M972.87 883.32h176v76h-176zm113-55s22-13 53-50 34-47 42-58 8 2 8 2 3 38-26 72c-29.39 34.45-62 44-77 34zm-69-150c26.26-5.93 46 9 46 9s-.54-11 0-32c.62-24.48 14.3-9.7 19-5 5 5 25 33 33 52s7.52 49.43 2 66c-6 18-32 40-32 40l-112-97.06s13-25.94 44-32.94z"/><path class="cls-2" d="M1066.87 744.32c52 55 25 111 25 111s11-17 22-16c16 1.45 17 19 17 19s13.92-26.57 30-24c25 4 41 39 36 68s-35 52-35 52-111-33-139-69-71-174-71-174 80.98-2.98 115 33z"/></g><path d="M533 935.29l13.92-1c203-14 266-11 378-5s43 1 226 18 161 46 3 51c-151 4.78-270 8-346 10-82.07 2.16-332 4-332 4-326 14-791-46-171-54z" fill="#e8e8e8" id="Shadow"/><g id="Palm_Trees" data-name="Palm Trees"><path class="cls-4" d="M549 199.32h-24.27c-12.34 140.43-6.2 226.85 66.14 401 .56 1.35 1.12 2.67 1.69 4h48.05c-61.51-97.68-100.46-274.73-91.61-405z"/><path class="cls-1" d="M314.64 274s-25.35-106.93 57.67-155.14 142.45 18.07 142.45 18.07-14.8 24-37.33 43.18c-20.92 17.86-46.1 30-46.1 30l-38.27-32.21 24.68 43.22s-26.47 22.56-47.24 33S314.64 274 314.64 274z"/><path class="cls-1" d="M462.87 390.32s-83.48-62.49-52.69-153.43 120.16-80.12 120.16-80.12 4.62 27.78.3 57.08c-4 27.22-10 56-10 56l-55-4.11 49 22.31s-7.08 30.4-15.85 51.94-35.92 50.33-35.92 50.33z"/><path class="cls-1" d="M523.29 186.14s13.89-102 105.51-123c86.07-19.79 130.07 60.21 130.07 60.21s-27 21.62-54.21 31.66c-25.28 9.33-52.54 12-52.54 12l-24.24-42.59 8 48.07s-31.88 11.73-54.54 14.3-58.05-.65-58.05-.65z"/><path class="cls-1" d="M528.66 177.45s83.44-63.45 150.5 2.82c56.71 56 36.63 134.45 36.63 134.45s-28.25-1.73-54-15.23c-23.93-12.54-46.24-32-46.24-32l21.4-46.67-35.37 36.3s-19.24-13.87-36.37-29-36.55-50.67-36.55-50.67zm-80.79-99.13s27.2-55.75 62-62c39-7 60 23 60 23v101l-91.8-4.14z"/><ellipse class="cls-5" cx="570.37" cy="185.82" rx="49.5" ry="46.5"/><ellipse class="cls-5" cx="505.37" cy="209.82" rx="49.5" ry="46.5"/><path class="cls-2" d="M304.87 107.32s69-92 158-56 73 130 73 130-28 3-57-3c-26.95-5.58-52-18-52-18l2-50-19 46s-38-4-59-14-46-35-46-35z"/><path class="cls-2" d="M549.87 156.67s-46.55-96.16 48.87-143.53c66.13-32.82 137.13 6.18 137.13 6.18s-14.16 32.53-35 50.35a385.76 385.76 0 0 1-40.81 29.83L623.6 66.59l21.87 41.08s-24.55 25.55-43.81 35.23-51.79 13.77-51.79 13.77z"/><path class="cls-2" d="M535.87 150.32s63-72 142.92-34.72c66 30.8 71.91 121.76 71.91 121.76s-30.38 6.89-58.44.27A331.64 331.64 0 0 1 642.19 221l8.57-51-27 44.64s-29.89-11.29-48-25.15c-17.93-13.71-39.89-39.17-39.89-39.17z"/><path class="cls-2" d="M420.87 288.32s-42-76 23-134.8c47.33-42.83 112.31-29.66 112.31-29.66s-10.29 41.46-15.8 55.6c-8 20.55-26.91 36.59-26.91 36.59l-37.51-22.92 26 34.85s-18.21 21.59-32.34 33.76-48.75 26.58-48.75 26.58z"/><path class="cls-4" d="M881.62 406.22l17.27-4c30.61 97.22 39.68 159.3 15.29 294.27-.19 1-.38 2.07-.58 3.1l-34.18 7.9c28.58-79.14 28.75-210.66 2.2-301.27z"/><path class="cls-1" d="M1060 420.49s1.41-79.74-65.15-100.17-98.53 36.18-98.53 36.18a148.67 148.67 0 0 0 33.27 24.38c17.66 9.19 37.47 13.65 37.47 13.65l22.21-29.07-10.84 34.59s22.34 11.6 38.75 15.57 42.82 4.87 42.82 4.87z"/><path class="cls-1" d="M972.6 527.05s49.67-57.88 13.63-117.09-98-36.88-98-36.88a149.66 149.66 0 0 0 8.66 40.39c7.08 18.58 15.79 37.91 15.79 37.91l38.51-11.94-31.41 23.82s9.77 20.32 19.36 34.1 33.46 29.69 33.46 29.69z"/><path class="cls-1" d="M897.87 392.68s-25.74-69.77-94.2-69.61c-64.3.15-83.17 63.92-83.17 63.92s22.58 10.85 43.49 13.47c19.43 2.44 39.24-.16 39.24-.16l10.63-34.08 1.75 35.29s24.56 3.07 41.06 1.17 41.2-10 41.2-10z"/><path class="cls-1" d="M892.69 387.42s-69.22-31.13-106.63 26.72c-31.63 48.93-5.16 101-5.16 101s19.83-5.86 36.06-19.64c15.08-12.79 27.91-30.24 27.91-30.24l-22.47-29.43 30.8 19.85s11.54-13 21.37-26.46 18.12-41.8 18.12-41.8zm42.07-83.33s-28-34.94-53.75-33.63c-28.83 1.46-39.11 26.11-39.11 26.11L857.6 368l64.67-18z"/><ellipse class="cls-5" cx="864.32" cy="400.19" rx="36.16" ry="33.64" transform="rotate(-16.87 864.257 400.18)"/><ellipse class="cls-5" cx="914.3" cy="406.47" rx="36.16" ry="33.64" transform="rotate(-16.87 914.257 406.457)"/><path class="cls-2" d="M1041 301.08s-63.39-53.68-121.11-13.61-31.72 103.87-31.72 103.87a153.48 153.48 0 0 0 40.08-11.49c18.3-8.36 34.2-21.26 34.2-21.26l-9.2-35L973.92 353s26.41-9.07 39.8-19.59 27.28-32.33 27.28-32.33z"/><path class="cls-2" d="M874.38 376.22s18.16-75.61-57.09-93.4c-52.15-12.34-96.6 26.89-96.6 26.89s15.14 20.67 32.77 29.83a276.5 276.5 0 0 0 33.63 14.38l20.83-29.24-9.17 32.62s21.43 14 36.64 17.7 38.99 1.22 38.99 1.22z"/><path class="cls-2" d="M883.35 369.43s-56-40.53-107.08-1.05C734.08 401 744 466.25 744 466.25s22.68-.13 41.62-9.42a246.08 246.08 0 0 0 33-20l-14-34.62 26.15 27.11s19.51-12.89 30.25-25.67c10.66-12.65 22.33-34.22 22.33-34.22z"/><path class="cls-2" d="M986.62 448.06s18.06-60.61-37.31-91.49c-40.33-22.49-84.51-2.5-84.51-2.5s13.77 27.6 19.89 36.69c8.89 13.21 24.83 21.44 24.83 21.44l23.12-22.36-13.07 28.9s16.32 12.26 28.26 18.55 38.79 10.77 38.79 10.77z"/></g><g id="Car"><path class="cls-6" d="M942.37 580.82c-15-6-79.71-18.82-79.71-18.82l48.71 52.82s-2.08 2.9 31-20c13-9 0-14 0-14zm-731.5 116.5s-33 1-38-1-10-5-10-8v-8c0-4 2-4 5-6s28-8 37-10 15 0 19 2 15 9 15 9z"/><path class="cls-7" d="M622.87 938.82a162.79 162.79 0 0 0 4.38-38c0-56.89-26.36-103-58.88-103s-58.88 46.11-58.88 103a162.8 162.8 0 0 0 4.37 38zm384 1a171.57 171.57 0 0 0 4.38-39c0-56.89-26.36-103-58.88-103s-58.88 46.11-58.88 103a171.58 171.58 0 0 0 4.37 39z"/><path class="cls-7" d="M998.68 896.42c0-45.81-22.31-83.2-50.31-85.29v-.31h-51v.18h-.49c-29.15 0-52.79 38.23-52.79 85.39s23.64 85.4 52.79 85.4h51.49v-.1c28-2.07 50.31-39.45 50.31-85.27z"/><ellipse class="cls-8" cx="945.88" cy="896.42" rx="52.79" ry="85.4"/><ellipse class="cls-9" cx="946.37" cy="900.82" rx="32.91" ry="56"/><ellipse class="cls-10" cx="945.01" cy="902.32" rx="27.86" ry="47.4"/><ellipse cx="943.01" cy="902.32" rx="25.86" ry="44" opacity=".73" fill="#8c8c8c"/><ellipse class="cls-10" cx="931.37" cy="901.58" rx="14.5" ry="25.26"/><path class="cls-7" d="M612.68 896.42c0-45.81-22.31-83.2-50.31-85.29v-.31h-51v.18h-.49c-29.15 0-52.79 38.23-52.79 85.39s23.64 85.4 52.79 85.4h51.49v-.1c28-2.07 50.31-39.45 50.31-85.27z"/><ellipse class="cls-8" cx="559.88" cy="896.42" rx="52.79" ry="85.4"/><ellipse class="cls-9" cx="562.37" cy="900.82" rx="32.91" ry="56"/><ellipse class="cls-10" cx="559.37" cy="902.32" rx="29.5" ry="47.4"/><ellipse cx="556.69" cy="902.32" rx="26.82" ry="44" fill="#8c8c8c"/><ellipse class="cls-10" cx="549.37" cy="901.58" rx="14.5" ry="25.26"/><path class="cls-7" d="M266.38 896.42c0-45.81-24.24-83.2-54.67-85.29v-.31h-55.43v.18h-.52c-31.69 0-57.38 38.23-57.38 85.39s25.69 85.4 57.38 85.4h56v-.1c30.38-2.07 54.62-39.45 54.62-85.27z"/><ellipse class="cls-8" cx="210.9" cy="896.42" rx="54.98" ry="85.4"/><path class="cls-13" d="M201.37 697.82a175.36 175.36 0 0 0-30 10c-16 7-57 28-63 33s-21 18-22 36c0 0-11 28-12 36s-7 64-3 79 24 48 24 48h418.49a171.58 171.58 0 0 1-4.37-39c0-56.89 26.36-103 58.88-103s58.88 46.11 58.88 103a171.57 171.57 0 0 1-4.38 39h275a171.58 171.58 0 0 1-4.37-39c0-56.89 26.36-103 58.88-103s58.88 46.11 58.88 103a173.65 173.65 0 0 1-3.39 34.48c9.7-4.07 20.08-11.79 23.51-26.48 7-30 8-55 0-80s-65-180-65-180-17-32-30-47-44-35-62-38-83-12-98-13-46-5-84-5c-46 0-146 2-166 2s-80 4-105 9-59 17-74 23-38 25-38 25l-107.5 92.5z"/><path d="M568.87 711.32s12-23 43-64 49-51 62-57 32-16 64-16a913 913 0 0 1 106 7c30 4 33 5 44 18s16 29 26 51-8 32-13 34-11 3-17 4-315 23-315 23z" fill="#233740"/><path d="M548.87 700.32c15.91-17.49 26.88-35 46-55 22-23 55-56 55-56h-296s-37 22-66 48c-34.82 31.21-66 63-66 63z" fill="#334e5a"/><path d="M254.87 679.32s23-23 48-44c17-15 52-36 52-36h201s9 34-14 47c-43.75 24.68-287 33-287 33z" fill="#64989f"/><path class="cls-13" d="M612.87 687.32c0-11 5-12 19-20s24-3 28-2 20 5 27 7 7 6 7 7v9c0 4-6 7-8 8s-56 4-65 4c-8.07 0-8-13-8-13z"/><path class="cls-17" d="M641.27 710.88v210.57H870c21.89-.13 21.89-26.13 21.89-26.13s1-34 12.25-57c9.27-18.93 13.75-28 26.35-43 15.67-18.64 6.12-63 6.12-63l-12.72-61"/><path class="cls-17" d="M786.67 921.45s4.2-57.13 7.2-77.13c9.22-61.48 0-145 0-145"/><path d="M732.87 727.32v17l37-1v-17l-37 1zm140 5l-1-18 38-1 1 17-38 2z" fill="#a88068"/><path class="cls-6" d="M418.87 941.32h-317c-9 0-22-20-27-39s-5-54 0-65 20-3 22-2 35 13 49 15 177 1 194 1 60.52-12.71 72-15c15-3 29-6 41-7 8-.67 4 12 4 12s-7 9-13 18c-5.12 7.67-2 51-2 60s-5 18-9 20-14 2-14 2z"/><path class="cls-19" d="M375.87 900.32h53c10 0 10 23 2 23h-39z"/><path class="cls-8" d="M100.87 926.32s6.22-23.9 14-41c5-11 15-10 15-10h212c19 0 46 51 46 51z"/><path class="cls-19" d="M87.87 923.32l-9-23h39l-10 23h-20z"/><path class="cls-8" d="M454.87 781.32l-151 56h-109s-94-44-101-48-5.11-17.67-1-30c5-15 56-40 56-40s-20.74 14.53-25 22c-4 7 20 34 20 34l68 11h105l72-12s6-5 11-10 12-11 27-22 33-14 33-14 33-6 55-9 6 14 6 14a127.6 127.6 0 0 1-20 24c-9.39 8.6-46 24-46 24z"/><path class="cls-6" d="M149.87 751.32c-23-12-6-21 3-27 22-14.65 59-25 59-25s-19.21 23.09-21 41c-1 10 3 15 10 23 7.5 8.58 1 14-7 10zm544-70.58v-1.42c0-1 0-5-7-7s-23-6-27-7-14-6-28 2c-13 7.41-18.21 8.82-18.92 17.73z"/><path d="M142.24 773.44c-5.33-6.24-21.73-26.24-18.37-32.12 4.26-7.47 25-22 25-22s-51 25-56 40c-4.11 12.33-6 26 1 30 2.79 1.6 19.44 9.56 38.43 18.56zm372.63-54.12c-22 3-55 9-55 9s-18 3-33 14-21.9 16.9-27 22c-3.78 3.78-8.12 7.55-10 9.17l-7.67 34.79 72.69-27s36.61-15.4 46-24a127.6 127.6 0 0 0 20-24s15.98-16.96-6.02-13.96z" fill="#c6d7da"/><path class="cls-19" d="M490.87 741.32c-19 2.37-46 6-57 12-10.72 5.84-38 24-40 32-1.35 5.38-3.6 14.84-4.93 20.45l65.93-24.45s13.74-5.78 26.55-12.24c14.21-13.14 29.5-30.27 9.45-27.76zm-371 14c-5-6 3-15 3-15s-21 9-28 20c-4.5 7.07-4.87 17.85-4.56 24.66a8.32 8.32 0 0 0 3.56 4.34c2.79 1.6 19.44 9.56 38.43 18.56l8.57-29.69c-5.24-5.49-15.96-16.82-21-22.87z"/><path d="M966.87 735.32c-17-11-11-21-1-22s21-1 30-1 12 6 12 6 3 9 7 23-9 8-16 6-32-12-32-12z" fill="#d78683"/></g></g></svg>